<svg xmlns="http://www.w3.org/2000/svg" width="35.48" height="25.49"><path fill-rule="evenodd" clip-rule="evenodd" fill="#616163" d="M32.3 25.49s-4.13-.59-10.4-5.84c-6.13-5.14-7.16-10.05-14.28-16.02-.84-.71-1.67-1.32-2.48-1.84-.31-1.4 1.1-1.71 1.17-1.66.85.55 1.73 1.2 2.63 1.95 7.11 5.97 8.15 10.88 14.28 16.02 6.27 5.26 10.39 5.85 10.39 5.85-.22 1.45-1.31 1.54-1.31 1.54z"/><polygon opacity=".4" fill-rule="evenodd" clip-rule="evenodd" points="12.14,5.23 10.62,3.8 9.52,5.69"/><path opacity=".4" fill-rule="evenodd" clip-rule="evenodd" d="M9.97 2.49l-3.36-2.09-.41 2.48s1.18-.88 3.77-.39z"/><path fill-rule="evenodd" clip-rule="evenodd" fill="#616163" d="M8.43 0s1.44.07 3.63 2.53c-.31 1.66-1.53 3.06-2.68 3.7-2 3.48-1.91 6.28-1.91 6.28s-.62-.08-1.88-.74l.4-2.52-2.17 1.46c-1.57-.97-2.79-2.1-3.82-4.32 2.25-.83 4.33-1.79 5.63-2.82 1.41-3.24 2.8-3.57 2.8-3.57z"/><path opacity=".2" fill-rule="evenodd" clip-rule="evenodd" fill="#fff" d="M7.59 11.12c-.14.87-.12 1.39-.12 1.39s-.72-.13-1.98-.79l.4-1.57c.71.43 1.2.69 1.7.97zm-2.13-1.26l-1.07 1.23c-1.57-.97-3.36-2.48-4.39-4.7l1.2-.39c1.17 1.59 2.64 2.84 4.26 3.86z"/><path opacity=".4" fill-rule="evenodd" clip-rule="evenodd" d="M8.94 6.92c-.74-1.07-1.31-1.73-2.25-3.12.43.53 2.08 1.75 2.86 2.32l-.17.11c-.2.34-.28.36-.44.69z"/><path opacity=".4" fill-rule="evenodd" clip-rule="evenodd" d="M17.046 14.522c.579.748 1.184 1.493 1.856 2.237l1.318-1.551c-.624-.691-1.192-1.382-1.734-2.077l-1.44 1.391z"/><path fill-rule="evenodd" clip-rule="evenodd" fill="#616163" d="M3.18 25.49s4.13-.59 10.4-5.84c6.13-5.14 7.16-10.05 14.28-16.02.84-.71 1.67-1.32 2.48-1.84.31-1.4-1.1-1.71-1.17-1.66-.85.55-1.73 1.2-2.63 1.95-7.11 5.97-8.15 10.88-14.28 16.02-6.27 5.26-10.39 5.85-10.39 5.85.22 1.45 1.31 1.54 1.31 1.54z"/><polygon opacity=".4" fill-rule="evenodd" clip-rule="evenodd" points="23.34,5.23 24.86,3.8 25.96,5.69"/><path opacity=".4" fill-rule="evenodd" clip-rule="evenodd" d="M25.51 2.49l3.36-2.09.41 2.48s-1.18-.88-3.77-.39z"/><path fill-rule="evenodd" clip-rule="evenodd" fill="#616163" d="M27.05 0s-1.44.07-3.63 2.53c.31 1.66 1.53 3.06 2.68 3.7 2 3.48 1.91 6.28 1.91 6.28s.62-.08 1.88-.74l-.4-2.52 2.17 1.46c1.57-.97 2.79-2.1 3.82-4.32-2.25-.83-4.33-1.79-5.63-2.82-1.41-3.24-2.8-3.57-2.8-3.57z"/><path opacity=".2" fill-rule="evenodd" clip-rule="evenodd" fill="#fff" d="M27.89 11.12c.14.87.12 1.39.12 1.39s.72-.13 1.98-.79l-.4-1.57c-.71.43-1.2.69-1.7.97zm2.13-1.26l1.07 1.23c1.57-.97 3.36-2.48 4.39-4.7l-1.2-.39c-1.17 1.59-2.64 2.84-4.26 3.86z"/><path opacity=".4" fill-rule="evenodd" clip-rule="evenodd" d="M26.54 6.92c.74-1.07 1.31-1.73 2.25-3.12-.43.53-2.08 1.75-2.86 2.32l.17.11c.2.34.28.36.44.69z"/></svg>